<svg xmlns="http://www.w3.org/2000/svg" viewBox="0 0 120 120" width="120" height="120">
  <defs>
    <linearGradient id="g" x1="0%" y1="0%" x2="100%" y2="100%">
      <stop offset="0%" stop-color="#6b0f1a"/>
      <stop offset="100%" stop-color="#9b1840"/>
    </linearGradient>
    <linearGradient id="gold" x1="0%" y1="0%" x2="100%" y2="100%">
      <stop offset="0%" stop-color="#e8cc8a"/>
      <stop offset="100%" stop-color="#c9a057"/>
    </linearGradient>
  </defs>
  <circle cx="60" cy="60" r="56" fill="url(#g)"/>
  <circle cx="60" cy="60" r="54" fill="none" stroke="url(#gold)" stroke-width="0.8" opacity="0.8"/>
  <circle cx="60" cy="60" r="48" fill="none" stroke="url(#gold)" stroke-width="0.3" opacity="0.4"/>
  
  <g fill="url(#gold)">
    <path d="M 60 38 Q 52 50 52 58 A 8 8 0 0 0 68 58 Q 68 50 60 38 Z"/>
  </g>
  <g fill="url(#gold)" opacity="0.6">
    <path d="M 45 52 Q 41 58 41 62 A 4 4 0 0 0 49 62 Q 49 58 45 52 Z"/>
    <path d="M 75 52 Q 71 58 71 62 A 4 4 0 0 0 79 62 Q 79 58 75 52 Z"/>
  </g>
  <g fill="url(#gold)" opacity="0.4">
    <path d="M 52 72 Q 49 76 49 79 A 3 3 0 0 0 55 79 Q 55 76 52 72 Z"/>
    <path d="M 68 72 Q 65 76 65 79 A 3 3 0 0 0 71 79 Q 71 76 68 72 Z"/>
  </g>
  <text x="60" y="105" text-anchor="middle" fill="#e8cc8a" font-family="serif" font-size="7" letter-spacing="0.15em">HYALURONIC</text>
</svg>