<svg xmlns="http://www.w3.org/2000/svg" viewBox="0 0 160 160" width="160" height="160">
  <defs>
    <linearGradient id="gold" x1="0%" y1="0%" x2="100%" y2="100%">
      <stop offset="0%" stop-color="#e8cc8a"/>
      <stop offset="100%" stop-color="#c9a057"/>
    </linearGradient>
  </defs>
  <g fill="none" stroke="url(#gold)" stroke-width="1" stroke-linecap="round">
    <path d="M 20 20 Q 40 40 40 70 Q 60 50 85 55 Q 95 70 80 85 Q 65 100 45 90 Q 30 75 20 60"/>
    <path d="M 30 25 Q 45 35 50 55" opacity="0.6"/>
    <path d="M 55 60 Q 70 60 75 75" opacity="0.6"/>
    <circle cx="70" cy="75" r="8" opacity="0.5"/>
    <path d="M 62 75 Q 66 68 70 68 Q 74 68 78 75 Q 74 82 70 82 Q 66 82 62 75 Z"/>
    <path d="M 66 75 Q 68 72 70 72 Q 72 72 74 75 Q 72 78 70 78 Q 68 78 66 75 Z"/>
  </g>
  <g fill="url(#gold)" opacity="0.8">
    <circle cx="40" cy="40" r="0.8"/>
    <circle cx="55" cy="45" r="0.5"/>
    <circle cx="90" cy="95" r="0.6"/>
  </g>
</svg>